<?xml version="1.0" encoding="UTF-8" standalone="no"?>
<!-- Created with Inkscape (http://www.inkscape.org/) -->

<svg
   width="192mm"
   height="108mm"
   viewBox="0 0 192 108"
   version="1.1"
   id="svg1"
   inkscape:version="1.3 (0e150ed6c4, 2023-07-21)"
   sodipodi:docname="wallpaper.svg"
   xmlns:inkscape="http://www.inkscape.org/namespaces/inkscape"
   xmlns:sodipodi="http://sodipodi.sourceforge.net/DTD/sodipodi-0.dtd"
   xmlns:xlink="http://www.w3.org/1999/xlink"
   xmlns="http://www.w3.org/2000/svg"
   xmlns:svg="http://www.w3.org/2000/svg">
  <sodipodi:namedview
     id="namedview1"
     pagecolor="#ffffff"
     bordercolor="#000000"
     borderopacity="0.25"
     inkscape:showpageshadow="2"
     inkscape:pageopacity="0.0"
     inkscape:pagecheckerboard="0"
     inkscape:deskcolor="#d1d1d1"
     inkscape:document-units="mm"
     inkscape:zoom="1.4342733"
     inkscape:cx="404.03735"
     inkscape:cy="238.79688"
     inkscape:window-width="1920"
     inkscape:window-height="1011"
     inkscape:window-x="0"
     inkscape:window-y="0"
     inkscape:window-maximized="1"
     inkscape:current-layer="layer1" />
  <defs
     id="defs1">
    <rect
       x="392.71304"
       y="579.45282"
       width="370.08615"
       height="67.079918"
       id="rect2" />
    <pattern
       inkscape:collect="always"
       xlink:href="#ticks"
       preserveAspectRatio="xMidYMid"
       id="pattern32"
       patternTransform="matrix(0.15,0,0,0.15,68.071996,-32.127913)"
       x="0"
       y="0" />
    <pattern
       patternUnits="userSpaceOnUse"
       width="60"
       height="60"
       preserveAspectRatio="xMidYMid"
       style="fill:#a31111"
       id="ticks"
       inkscape:stockid="Ticks"
       inkscape:collect="always"
       inkscape:isstock="true"
       inkscape:label="Tiques">
      <path
         id="path28"
         d="M 0,0 H 10 V 50 H 0 Z M 79.142136,3.7867966 86.213203,10.857864 50.857864,46.213203 43.786797,39.142136 Z M 150,20 V 30 H 100 V 20 Z m 56.2132,19.142136 -7.07106,7.071067 -35.35534,-35.355339 7.07106,-7.0710674 z M 250,50 H 240 V 0 h 10 z M 19.142136,63.786797 26.213203,70.857864 -9.1421356,106.2132 -16.213203,99.142136 Z M 90,80 V 90 H 40 V 80 Z m 56.2132,19.142136 -7.07106,7.071064 -35.35534,-35.355336 7.07106,-7.071067 z M 190,110 H 180 V 60 h 10 z m 40.85786,-3.7868 -7.07106,-7.071064 35.35534,-35.355339 7.07106,7.071067 z M 30,140 v 10 h -50 v -10 z m 56.213203,19.14214 -7.071067,7.07106 -35.355339,-35.35534 7.071067,-7.07106 z M 130,170 h -10 v -50 h 10 z m 40.85786,-3.7868 -7.07106,-7.07106 35.35534,-35.35534 7.07106,7.07106 z M 220,150 v -10 h 50 v 10 z m -193.786797,69.14214 -7.071067,7.07106 -35.355339,-35.35534 7.0710674,-7.07106 z M 70,230 H 60 v -50 h 10 z m 40.85786,-3.7868 -7.07106,-7.07106 35.35534,-35.35534 7.07106,7.07106 z M 160,210 v -10 h 50 v 10 z m 63.7868,-19.14214 7.07106,-7.07106 35.35534,35.35534 -7.07106,7.07106 z M 10,290 H 0 v -50 h 10 z m 40.857864,-3.7868 -7.071067,-7.07106 35.355339,-35.35534 7.071067,7.07106 z M 100,270 v -10 h 50 v 10 z m 63.7868,-19.14214 7.07106,-7.07106 35.35534,35.35534 -7.07106,7.07106 z M 240,240 h 10 v 50 h -10 z"
         style="stroke-width:10;stroke-linecap:square;paint-order:markers fill stroke;stop-color:#000000"
         transform="scale(0.25)" />
    </pattern>
  </defs>
  <g
     inkscape:label="Calque 1"
     inkscape:groupmode="layer"
     id="layer1">
    <rect
       style="fill:#092151;fill-opacity:1;stroke-width:5.64423"
       id="rect1"
       width="192"
       height="108"
       x="0"
       y="0" />
    <rect
       style="fill:url(#pattern32);fill-opacity:1;stroke:none;stroke-width:0.245;stroke-dasharray:none;stroke-opacity:1"
       id="rect5"
       width="35.355949"
       height="35.355946"
       x="85.748749"
       y="-49.598373"
       transform="rotate(44.663702)"
       inkscape:label="rect5" />
    <text
       xml:space="preserve"
       transform="matrix(0.25980062,0,0,0.26458333,-21.47727,-73.870746)"
       id="text1"
       style="font-style:normal;font-variant:normal;font-weight:normal;font-stretch:normal;font-size:18.6337px;font-family:Sans;-inkscape-font-specification:'Sans, Normal';font-variant-ligatures:normal;font-variant-caps:normal;font-variant-numeric:normal;font-variant-east-asian:normal;white-space:pre;shape-inside:url(#rect2);display:inline;fill:#a21111;fill-opacity:1;stroke-width:1.85197"><tspan
         x="392.71289"
         y="595.3663"
         id="tspan2">R O O I B O S</tspan></text>
  </g>
</svg>
